<svg version="1.1" id="Layer_1" xmlns="http://www.w3.org/2000/svg" xmlns:xlink="http://www.w3.org/1999/xlink" x="0px" y="0px"
	 width="100%" viewBox="0 0 960 1024" enable-background="new 0 0 960 1024" xml:space="preserve">
<path fill="#000000" opacity="1.000000" stroke="none" 
	d="
M474.580444,155.574280 
	C488.340149,149.399948 500.301239,140.756470 513.357849,134.088028 
	C518.055542,131.688766 522.701538,129.102570 528.812866,128.072815 
	C531.979980,257.891235 528.525024,387.303223 529.349915,517.387146 
	C527.800842,516.705933 527.070557,516.609253 526.708740,516.192505 
	C519.796082,508.231323 512.119263,501.115784 503.519958,495.002563 
	C501.019135,493.224701 501.695923,490.527008 501.694458,488.104492 
	C501.665833,440.106049 501.671661,392.107635 501.668793,344.109192 
	C501.668365,336.942780 501.690002,329.776123 501.631531,322.610138 
	C501.617096,320.841125 502.149292,318.918121 500.362823,317.034119 
	C432.225403,348.193146 368.631256,387.933990 303.768860,424.785767 
	C302.325409,423.452820 302.480774,422.445282 302.592041,421.450195 
	C306.173920,389.416565 304.805573,357.303894 304.100708,325.203796 
	C303.909149,316.480133 303.841522,316.545929 295.007080,317.470825 
	C277.462128,319.307617 259.868927,320.468079 242.246857,321.298920 
	C233.778900,321.698181 225.330414,322.552185 216.883881,323.318878 
	C215.621017,323.433563 214.225540,323.952850 213.229660,324.722565 
	C211.578827,325.998566 209.013809,327.341492 209.705185,329.678345 
	C210.521011,332.435822 213.319397,331.131500 215.367004,331.099518 
	C240.343063,330.709076 264.974640,325.554657 289.992004,325.710846 
	C298.943665,325.766724 298.921143,325.728546 298.923615,334.437317 
	C298.928986,353.253357 299.224426,372.073639 298.922150,390.884491 
	C298.398041,423.502563 290.145325,454.352631 276.907074,484.020081 
	C263.247589,514.631409 245.145630,542.527100 225.202774,569.316345 
	C220.332092,575.859131 214.663330,581.532288 207.668533,585.956482 
	C205.099014,582.785095 205.976440,579.646606 206.052994,576.789368 
	C207.195572,534.143738 206.846481,491.486603 206.424500,448.845062 
	C206.155777,421.689392 206.969070,394.553986 206.706497,367.408569 
	C206.623657,358.845154 204.911331,350.557556 202.499863,342.391510 
	C202.182297,341.316132 201.932037,340.085785 200.532776,339.534973 
	C198.099152,339.935760 196.792786,342.018311 195.166702,343.594788 
	C174.328247,363.797699 156.097717,386.417999 136.071777,407.373505 
	C131.470154,412.188690 126.701523,416.857147 121.810066,421.377045 
	C119.404221,423.600098 118.422729,426.109528 118.261383,429.278046 
	C117.065964,452.753479 116.788040,476.259308 117.454613,499.732025 
	C118.043457,520.467529 121.252464,540.810059 131.294983,559.517029 
	C137.386887,570.864868 145.570999,579.897827 157.325562,585.516235 
	C162.486115,587.982849 167.518051,590.718445 173.190094,593.630493 
	C171.931046,594.449280 171.490753,594.962341 171.208694,594.886597 
	C152.034744,589.734863 133.804230,582.364624 118.804726,569.050293 
	C104.666168,556.500122 98.145645,539.508728 93.926369,521.567688 
	C91.667068,511.960785 90.852119,502.176788 91.030075,492.295441 
	C91.435143,469.803711 89.797737,447.308044 91.112053,424.817596 
	C91.345230,420.827423 91.796341,416.850128 92.042953,412.860474 
	C92.174179,410.737549 93.086426,409.134827 94.488037,407.573303 
	C114.295181,385.506805 135.040100,364.299591 154.514267,341.926178 
	C163.149506,332.005341 172.033279,322.299927 180.854797,312.542480 
	C186.756866,306.014160 193.954651,302.743439 202.974197,302.903351 
	C211.611893,303.056458 211.795593,302.628326 212.724579,294.059937 
	C213.230591,289.392670 214.417450,284.906677 215.489883,280.370941 
	C216.294083,276.969543 217.798538,276.076477 220.644012,278.403564 
	C223.353058,280.619080 226.025009,282.880157 228.746719,285.079865 
	C230.790497,286.731659 230.995453,288.991913 231.133942,291.379974 
	C231.332870,294.810272 230.716705,298.316132 231.821442,301.949585 
	C234.307510,301.558990 234.690918,299.610809 235.206436,298.029388 
	C237.447037,291.155914 242.034454,286.737122 248.261536,283.035126 
	C280.770172,263.708588 313.882935,245.438217 346.549438,226.391815 
	C347.556976,225.804382 348.617310,225.301132 349.592224,224.665375 
	C352.663635,222.662445 354.172516,223.975372 354.870117,227.087143 
	C355.088654,228.061996 355.239410,229.053986 355.497223,230.017792 
	C356.288849,232.977005 357.655273,234.336838 360.849487,232.448227 
	C375.615967,223.717316 390.468231,215.131500 405.229431,206.391830 
	C408.793121,204.281845 408.452637,200.233673 408.517853,196.964859 
	C408.613007,192.192825 410.509491,189.459656 414.602264,187.102554 
	C434.085815,175.881638 453.275665,164.131561 474.580444,155.574280 
M394.325012,254.824951 
	C390.987579,258.816101 388.499481,263.340851 386.189697,267.961517 
	C380.751526,278.840332 380.768524,278.862854 370.284363,272.462433 
	C367.659668,270.860077 365.235718,269.663239 361.936646,271.238983 
	C342.823547,280.368011 329.995697,305.992889 334.598114,326.524567 
	C336.636383,335.617432 341.487457,342.793274 350.261139,346.631683 
	C357.789520,349.925262 365.733734,351.679321 373.975647,351.979706 
	C376.287354,352.063904 378.231415,351.345795 379.756622,349.587738 
	C393.112457,334.192841 405.224060,317.920807 413.697388,299.273865 
	C417.593231,290.700378 413.824554,281.662170 405.496002,277.398804 
	C402.184784,275.703796 400.316406,276.198669 399.331451,280.016205 
	C397.752167,286.137360 395.980682,292.213196 394.117920,298.255035 
	C393.292114,300.933411 393.082367,304.002045 389.415222,307.031494 
	C391.478241,291.554199 395.193115,278.097198 401.552490,265.559784 
	C404.005981,265.733612 404.731232,267.178040 405.638489,268.304169 
	C408.266602,271.566101 411.279694,274.432678 414.511017,277.069397 
	C418.690582,280.479889 420.253876,280.127960 422.028992,275.174744 
	C424.303619,268.827606 425.352509,262.307343 423.571289,255.641312 
	C422.568115,251.887115 420.722717,248.601517 417.783142,245.904739 
	C414.539398,242.928879 411.201324,242.447128 407.281616,244.476761 
	C402.476318,246.964951 398.513367,250.466537 394.325012,254.824951 
M259.416687,299.107635 
	C267.143707,299.633331 274.870453,300.163055 282.597961,300.681458 
	C284.258514,300.792908 285.544464,300.189636 286.105469,298.538666 
	C287.326233,294.946075 288.936523,291.456970 288.941681,287.540894 
	C288.948395,282.427551 286.024902,280.208984 281.200897,281.919769 
	C276.786591,283.485199 272.877899,286.051544 269.285736,288.990875 
	C265.667419,291.951599 260.979309,293.817627 259.416687,299.107635 
z"/>
<path fill="#000000" opacity="1.000000" stroke="none" 
	d="
M587.442627,622.297607 
	C593.565552,620.242188 598.985840,617.196838 605.458801,616.408386 
	C605.412842,619.083557 603.378662,619.533081 602.052368,620.505371 
	C581.565674,635.523621 559.068604,647.235962 537.181885,659.956482 
	C521.483582,669.080383 505.874298,678.357239 490.218994,687.555054 
	C481.573334,692.634521 472.716705,696.987366 462.573883,698.537598 
	C457.991241,699.238037 454.421417,702.885864 450.498474,705.353271 
	C427.921722,719.553284 404.611145,732.483704 381.362823,745.524414 
	C379.780884,746.411804 378.022369,747.078552 376.916870,748.635559 
	C376.501678,750.292480 377.803467,751.100830 378.670349,751.990601 
	C386.209137,759.728821 389.531647,769.322449 391.355865,779.708496 
	C393.111237,789.702759 394.741943,799.739685 398.921265,809.150940 
	C400.484009,812.670044 402.631409,814.782288 406.540741,815.356567 
	C414.732941,816.559998 422.540344,819.885010 430.991913,820.064331 
	C432.598724,817.563538 432.775940,814.795898 432.680176,812.259033 
	C432.240417,800.610046 439.001587,793.526672 447.707977,787.498657 
	C457.197510,780.928528 468.155457,778.913757 479.215668,777.287781 
	C495.462708,774.899414 511.655060,774.462280 527.743042,778.715515 
	C545.150452,783.317566 557.081726,793.475220 564.425232,810.341736 
	C569.654968,822.353333 572.084656,833.676636 567.662109,846.232239 
	C566.357422,849.936157 566.075867,854.023926 565.528625,857.963989 
	C565.079163,861.199707 565.937439,863.308960 569.936096,862.182861 
	C575.451843,860.629578 581.006592,859.214661 586.495361,857.753601 
	C587.422485,860.210876 585.797913,860.595093 584.797302,861.264587 
	C582.720886,862.653809 580.689575,864.194885 578.432251,865.214172 
	C569.860107,869.085083 565.691406,875.146057 564.977417,884.980774 
	C564.273987,894.671387 557.189636,901.437134 549.243896,906.411682 
	C533.791748,916.085693 516.635437,919.457031 498.569061,918.829468 
	C479.216614,918.157166 460.992554,913.806396 444.894623,902.474976 
	C442.594025,900.855591 440.866577,901.117004 438.896881,903.341125 
	C431.690125,911.479126 423.779297,918.911682 414.299622,924.343933 
	C398.142731,933.602661 381.501007,936.639221 364.752960,926.016785 
	C351.828430,917.819336 343.573029,905.934937 342.238678,890.617126 
	C341.361938,880.551575 345.446503,870.941223 349.723724,861.906128 
	C358.837799,842.653992 372.453705,827.987183 393.367126,821.305542 
	C395.698059,820.560913 397.307831,819.338806 396.669861,816.621948 
	C394.620117,807.892639 392.061371,799.324829 388.461548,790.426514 
	C380.456726,794.395264 372.814087,798.184448 365.713379,801.704956 
	C363.963715,800.904968 363.789154,800.046875 363.860840,799.233032 
	C364.876343,787.706909 361.230682,776.834595 359.232361,765.729492 
	C358.703369,762.789734 358.398163,759.809448 357.999451,756.846558 
	C357.569733,753.653381 359.951782,752.578796 362.135773,751.312988 
	C381.015717,740.370056 399.897461,729.429932 418.757324,718.452393 
	C431.982269,710.754700 445.253876,703.292847 459.199341,696.791016 
	C470.675385,691.440552 481.128418,683.589966 492.261902,677.219849 
	C517.706238,662.661560 543.658752,648.964539 567.798279,632.196167 
	C570.818481,630.098206 571.198486,628.639771 569.626465,625.450684 
	C562.118530,610.219910 553.984924,595.275635 548.218567,579.228027 
	C545.788574,572.465332 544.278564,565.492981 542.830933,558.492615 
	C542.600647,557.378906 542.380981,556.174683 543.706787,554.611023 
	C546.212769,558.277527 547.702271,562.223999 549.261963,566.092102 
	C556.486938,584.010803 563.386902,602.068604 572.236450,619.283752 
	C576.293091,627.175293 576.320740,627.162476 584.356445,623.684387 
	C585.273804,623.287415 586.181641,622.868408 587.442627,622.297607 
z"/>
<path fill="#000000" opacity="1.000000" stroke="none" 
	d="
M802.650574,352.559753 
	C802.896973,356.834869 803.195740,360.658112 803.207825,364.482269 
	C803.266785,383.146362 803.247864,401.810730 803.259827,420.474976 
	C803.264587,427.946106 803.263489,427.965118 810.342712,429.826996 
	C815.345398,431.142761 820.226196,432.759552 824.909058,434.997284 
	C833.524414,439.114288 838.151306,446.337677 840.876587,455.105286 
	C841.356140,456.647980 841.179077,458.062897 840.214355,459.364075 
	C839.718323,460.033203 839.282776,460.771667 838.686279,461.338074 
	C832.653992,467.065887 831.354370,473.155975 833.975769,481.580292 
	C837.303223,492.273712 834.739441,503.755157 835.047974,514.888977 
	C835.072449,515.775146 834.597839,517.015686 833.925659,517.528015 
	C827.102600,522.728210 820.864014,528.984131 811.773193,530.251648 
	C809.141602,530.618591 806.426331,530.758606 803.915771,531.538330 
	C799.261414,532.983704 797.733704,531.592896 797.601379,526.700867 
	C797.214478,512.396057 796.498047,498.095673 795.612610,483.812073 
	C795.393066,480.270721 796.429077,479.039459 799.845398,478.816010 
	C803.892883,478.551270 808.027222,478.533264 812.024292,477.240723 
	C811.509644,474.761932 809.708252,475.233795 808.388794,475.206238 
	C803.391724,475.101837 798.389954,475.225708 793.392944,475.119507 
	C790.159851,475.050812 788.959167,476.593781 788.928833,479.672668 
	C788.749756,497.828491 788.543274,515.984314 788.249634,534.138550 
	C788.193420,537.611633 789.697083,538.853210 793.044189,538.836548 
	C799.874634,538.802612 806.707581,538.942566 813.536560,539.122925 
	C815.592896,539.177185 817.865417,538.572571 819.690430,540.371887 
	C818.433228,542.062012 816.546997,541.570312 815.080750,541.682434 
	C803.963318,542.531860 792.821594,543.090637 781.731201,541.383362 
	C773.631165,540.136414 768.071045,535.637024 765.238953,527.876343 
	C764.953674,527.094604 764.585144,526.343750 764.282898,525.567749 
	C762.325928,520.542419 761.541016,514.744629 755.343811,512.939331 
	C755.671387,512.068420 755.721558,511.543823 755.911194,511.487274 
	C763.029236,509.365173 763.486572,504.020660 763.088440,497.772949 
	C762.221252,484.164764 761.755981,470.532104 759.865295,457.004669 
	C758.805359,449.420898 764.838928,439.947449 773.148682,435.860626 
	C779.328003,432.821533 785.898132,430.996643 792.577087,429.564056 
	C796.979492,428.619751 798.869324,426.479279 798.815979,421.658447 
	C798.585388,400.830627 798.798645,379.998291 798.698181,359.168335 
	C798.677429,354.862762 798.227417,350.526978 797.585754,346.263733 
	C796.456543,338.761261 789.201416,334.483185 781.366760,336.482513 
	C776.783936,337.652008 772.733459,340.001343 768.758118,342.440796 
	C723.452637,370.242584 676.764954,395.665131 630.931946,422.558197 
	C627.627747,424.496918 624.434814,426.625061 621.132751,428.567627 
	C609.263550,435.549957 602.382629,445.599396 601.234375,459.565033 
	C600.784302,465.038849 600.247620,470.481201 600.254456,475.983704 
	C600.294800,508.479523 600.406433,540.976501 600.157837,573.470459 
	C600.109375,579.799133 601.324280,585.192078 605.433411,590.036499 
	C606.721985,591.555725 608.699707,592.955261 608.465637,595.391113 
	C607.195679,596.452332 606.128418,595.624756 605.119690,595.204529 
	C591.848511,589.674805 579.307007,582.798340 567.436768,574.690674 
	C565.309692,573.237793 563.704224,571.655579 563.625610,568.708679 
	C562.751709,535.945801 559.964172,503.236572 560.732910,470.429321 
	C561.067444,456.152740 562.577576,441.959869 564.722473,427.842072 
	C565.280762,424.167236 568.045105,421.768860 570.255188,419.110352 
	C580.837952,406.380524 594.612244,397.782959 609.325500,391.043549 
	C619.703613,386.289825 626.996521,380.615234 628.411377,368.387512 
	C629.727356,357.013977 637.334656,349.250122 646.692200,343.411224 
	C662.794617,333.363678 678.868286,323.247253 696.120972,315.193970 
	C699.518555,313.608032 702.706909,313.582672 706.245850,314.726715 
	C732.612915,323.250275 722.807495,322.962555 747.868958,311.709961 
	C751.434937,310.108856 754.099060,310.070038 757.593689,311.828064 
	C768.940308,317.536194 779.594482,324.350586 790.142456,331.351227 
	C797.541138,336.261749 803.089600,342.399872 802.650574,352.559753 
z"/>
<path fill="#000000" opacity="1.000000" stroke="none" 
	d="
M794.074097,559.879822 
	C802.143616,564.937683 809.894958,569.821045 817.684387,574.642883 
	C822.549744,577.654602 822.671326,578.220337 818.363892,582.145142 
	C812.173706,587.785583 805.257446,592.439087 797.934570,596.445374 
	C774.252441,609.402100 751.183472,623.414551 727.832642,636.941589 
	C722.216248,640.195190 716.276733,642.888184 710.627747,646.089539 
	C707.336609,647.954712 704.548889,646.762390 701.637268,645.466309 
	C688.349731,639.551575 676.037903,631.912415 663.839661,624.071838 
	C657.563293,620.037659 651.274414,616.023010 644.414917,611.630493 
	C649.459290,604.733337 655.778015,600.014954 662.488342,596.337585 
	C693.156311,579.530640 722.842041,560.994263 753.788269,544.680664 
	C757.581238,542.681152 760.882019,542.607910 764.678101,544.230164 
	C774.817749,548.563538 784.476013,553.772583 794.074097,559.879822 
M734.644287,610.674500 
	C736.463501,610.702881 737.999451,610.186340 738.225525,608.133301 
	C738.369324,606.827515 737.383667,606.037659 736.252441,605.588440 
	C735.027710,605.101990 733.956055,605.525208 733.159607,606.486755 
	C731.805847,608.120972 732.116638,609.487671 734.644287,610.674500 
M764.693298,588.847839 
	C762.341858,588.246887 761.106079,589.239319 761.307800,591.581421 
	C761.442749,593.148010 762.686951,593.915771 764.190857,593.390259 
	C766.501282,592.582825 766.767334,591.065002 764.693298,588.847839 
z"/>
<path fill="#000000" opacity="1.000000" stroke="none" 
	d="
M584.135010,309.612061 
	C585.853210,300.189728 591.357727,292.625702 593.817200,284.098907 
	C596.507324,274.772705 602.500854,271.479858 611.025940,270.057007 
	C617.957520,268.900116 624.738098,267.634583 631.699768,270.076172 
	C635.500793,271.409302 637.804932,273.702728 639.172241,277.419373 
	C641.055603,282.538483 643.331787,287.488708 648.522339,292.498047 
	C651.251160,274.179565 648.820618,257.408417 646.294434,240.393066 
	C651.297974,240.243164 654.742249,243.689987 659.069519,243.921219 
	C659.320923,243.300003 659.744812,242.788864 659.642090,242.427277 
	C657.346008,234.342331 661.807373,229.167664 666.983337,223.897217 
	C671.810242,218.982178 671.575623,218.612610 666.309998,213.823029 
	C661.525024,209.470642 657.287598,204.487411 651.422058,200.582275 
	C647.189514,204.766388 642.691162,208.599625 637.446899,211.174530 
	C638.278503,214.335754 640.550354,215.374268 642.246460,216.852997 
	C647.681946,221.591843 648.473877,229.923721 640.689453,233.607773 
	C634.604431,236.487595 629.009827,240.403702 622.226624,244.436462 
	C621.706970,238.030457 620.985779,232.841537 620.920837,227.644409 
	C620.727234,212.149994 620.572266,196.648743 620.829834,181.157257 
	C621.007507,170.467957 625.283752,161.792557 635.233948,156.653275 
	C637.179626,155.648331 639.128662,154.735825 641.412415,155.583420 
	C649.374817,158.538498 657.848389,159.871506 665.682007,163.245468 
	C673.562805,166.639816 680.263000,171.289215 683.574524,179.663834 
	C685.576843,184.727631 684.994995,185.714355 679.403992,186.072342 
	C676.413757,186.263794 673.408569,186.225510 670.409912,186.280579 
	C661.865173,186.437531 659.466064,189.939667 662.491638,197.968674 
	C663.475098,200.578583 664.232727,203.369659 667.154968,205.421875 
	C672.295715,200.106995 674.966431,192.881104 680.353577,187.260483 
	C682.942261,190.913391 682.893127,194.650024 682.959229,198.152908 
	C683.144653,207.971008 683.277527,217.780731 682.472656,227.613541 
	C681.447021,240.143707 684.178894,252.484512 685.386841,264.897827 
	C685.542847,266.501495 686.219238,268.040955 688.550110,269.344055 
	C688.958252,260.066681 689.374329,251.348969 689.708191,242.628082 
	C689.829224,239.466446 689.737732,236.297104 689.772949,233.131607 
	C689.797546,230.919235 690.847656,229.761063 693.165771,229.799454 
	C695.557434,229.839081 696.324463,231.188141 696.337585,233.337082 
	C696.417786,246.492935 696.381592,259.644989 695.630188,272.787506 
	C695.480713,275.402588 693.690613,276.450226 691.823669,277.600067 
	C674.228149,288.437347 656.078979,298.309387 637.868286,308.042389 
	C632.615906,310.849548 629.196106,315.169617 625.282410,319.193604 
	C620.991455,323.605377 617.039673,328.381714 611.682434,331.635468 
	C605.898376,335.148407 599.882446,337.453674 593.330566,333.952271 
	C586.446411,330.273285 583.899475,323.953125 583.682068,316.505035 
	C583.619263,314.353851 583.890259,312.192963 584.135010,309.612061 
M677.929993,253.042831 
	C677.211243,252.043030 677.155518,250.407242 675.000671,250.356186 
	C672.645264,258.053864 672.312927,265.600555 676.237854,274.210419 
	C680.777161,266.909210 680.241638,260.374115 677.929993,253.042831 
z"/>
<path fill="#000000" opacity="1.000000" stroke="none" 
	d="
M266.364624,554.000122 
	C266.348541,569.832214 266.230927,585.165100 266.359680,600.495972 
	C266.421143,607.814270 266.981964,615.127502 267.245178,622.445618 
	C267.309418,624.232361 267.827667,625.642456 269.274414,626.767639 
	C288.088867,641.399414 296.968201,662.105896 304.115540,683.860535 
	C305.466400,687.972107 306.629913,692.148071 308.079041,696.223511 
	C309.022156,698.875854 308.583740,700.533081 305.883209,701.821167 
	C289.164612,709.795288 273.508209,719.677185 257.504852,728.936157 
	C256.119568,729.737732 254.832382,731.004333 252.558685,730.101074 
	C252.220566,725.412415 254.151978,721.137573 255.449509,716.772034 
	C257.579407,709.606262 260.536865,702.593018 260.553314,694.994995 
	C260.572876,685.958923 256.834229,679.072510 248.433914,674.825745 
	C234.596466,667.830261 236.757126,671.776367 236.866287,655.893982 
	C237.054184,628.559753 235.850662,601.253784 235.645325,573.929382 
	C235.607483,568.893860 236.553085,564.395630 239.215363,560.200745 
	C246.099915,549.352844 253.706314,539.038879 262.105255,529.314331 
	C262.857025,528.443909 263.631958,527.517456 265.844757,527.549622 
	C266.779480,536.124695 266.148651,544.835205 266.364624,554.000122 
z"/>
<path fill="#000000" opacity="1.000000" stroke="none" 
	d="
M129.342499,778.205444 
	C130.034027,792.700073 138.349167,801.885010 149.394058,809.030151 
	C164.472183,818.784424 181.338135,822.872803 199.098022,823.715698 
	C221.322006,824.770508 243.079224,823.255981 263.001312,811.867065 
	C263.434418,811.619507 263.886963,811.402954 264.341400,811.195984 
	C279.797913,804.154419 287.309326,792.170044 286.712463,775.171021 
	C286.577179,771.317871 287.514313,767.661621 288.141602,763.664246 
	C288.984100,764.106323 289.703033,764.264404 289.751678,764.540588 
	C292.118683,777.976624 294.840668,791.367493 293.590973,805.165039 
	C292.284973,819.584534 285.122101,829.937866 272.774139,837.315796 
	C250.366516,850.704285 226.034195,855.440247 200.347900,853.637146 
	C182.791519,852.404663 165.698761,848.801453 150.039825,840.184265 
	C147.854477,838.981628 145.747894,837.635681 143.606903,836.352661 
	C129.448212,827.867859 123.892326,814.993347 124.249855,798.938354 
	C124.580086,784.108887 126.905724,769.824341 133.874924,756.475891 
	C135.785049,752.817383 138.026367,750.501343 142.245285,750.870178 
	C147.452454,751.325439 149.847870,748.471802 151.826904,744.060547 
	C157.291733,731.879761 156.447205,719.404053 154.329010,706.792908 
	C153.170929,699.898010 151.917572,693.019165 150.721283,686.130676 
	C150.448456,684.559631 149.746246,682.894714 151.302856,681.615662 
	C152.415207,681.874207 152.832489,682.621826 153.029236,683.408142 
	C156.136322,695.826782 159.508881,708.226135 160.014740,721.092712 
	C160.276611,727.754272 159.400940,734.482056 157.140289,740.761780 
	C152.973328,752.336914 154.003571,763.971069 155.820923,776.740967 
	C165.399155,769.402832 171.999374,759.649902 181.173981,752.687134 
	C182.999039,754.952881 181.366318,755.969299 180.494812,756.897766 
	C174.665955,763.107178 169.300720,769.716431 164.407562,776.651428 
	C161.848419,780.278564 158.308945,780.394470 154.775101,780.765869 
	C152.253448,781.030945 152.095108,778.734253 151.983444,776.890015 
	C151.611053,770.739807 151.213608,764.588745 151.003403,758.431946 
	C150.876816,754.724121 149.507126,753.939026 145.944977,755.065796 
	C139.485764,757.108948 134.619537,760.657715 132.458130,767.265381 
	C131.322159,770.738220 130.392899,774.278564 129.342499,778.205444 
z"/>
<path fill="#000000" opacity="1.000000" stroke="none" 
	d="
M551.779053,209.082947 
	C553.225464,198.590118 552.277893,188.435181 553.032227,177.806885 
	C559.035461,178.922241 563.760315,181.341202 568.619568,183.310883 
	C569.794006,183.786942 570.043579,185.003464 569.975586,186.284424 
	C568.341125,217.078842 569.695129,247.897903 569.235840,278.703125 
	C568.850952,304.522766 569.544434,330.321960 571.179932,356.093811 
	C571.252136,357.230896 571.470459,358.358673 571.716125,360.210114 
	C584.879639,355.396606 596.778564,348.294586 609.856323,344.245605 
	C610.493835,346.136017 609.916443,346.776978 609.238220,347.257050 
	C598.321777,354.983856 587.045654,361.912598 573.958374,365.595947 
	C568.301025,367.188202 564.556274,364.509491 560.147339,362.025818 
	C554.425598,358.802582 552.647461,354.711853 552.457703,348.008087 
	C551.151306,301.861816 551.761658,255.716217 551.779053,209.082947 
z"/>
<path fill="#000000" opacity="1.000000" stroke="none" 
	d="
M711.815063,436.342529 
	C713.828125,437.302826 715.525085,437.859375 717.394226,438.045258 
	C724.056519,438.707825 724.836304,439.922577 725.208191,446.352020 
	C725.644775,453.900024 724.815674,460.648804 719.083252,466.458466 
	C715.484619,470.105469 713.327148,475.088379 711.906799,480.041290 
	C709.659729,487.877075 702.292175,489.220306 696.556030,492.164978 
	C693.766846,493.596863 690.246033,489.956635 687.034058,488.683655 
	C676.323242,484.438782 674.442383,481.038940 678.794006,470.149780 
	C682.981628,459.670746 689.361816,450.205688 695.835449,441.002045 
	C699.382324,435.959442 705.149841,434.227295 711.815063,436.342529 
z"/>
<path fill="#000000" opacity="1.000000" stroke="none" 
	d="
M216.220215,583.993652 
	C221.015198,579.127441 225.996719,575.111145 231.272247,571.369141 
	C233.479187,575.006592 234.626328,664.425903 232.464645,669.965332 
	C226.689270,665.597961 220.712860,661.872559 215.698029,656.876709 
	C214.345825,655.529602 214.889954,653.372681 215.042664,651.570862 
	C216.351044,636.133301 215.720947,620.697754 215.280472,605.247742 
	C215.082321,598.297302 215.752518,591.322083 216.220215,583.993652 
z"/>
<path fill="#000000" opacity="1.000000" stroke="none" 
	d="
M639.328369,740.122681 
	C645.934143,735.046936 652.343628,730.270447 658.672546,725.389526 
	C660.977905,723.611694 663.338196,723.191284 666.150635,723.888489 
	C674.907288,726.059387 683.787415,727.415771 692.840820,726.957886 
	C696.203430,726.787720 698.074890,728.084473 699.067078,731.324402 
	C701.113647,738.007263 703.381470,744.622742 705.591492,751.254883 
	C706.251953,753.236694 706.828674,755.185486 704.657776,756.607422 
	C691.448547,765.258972 677.331543,769.363159 661.576111,765.102600 
	C661.290955,765.025574 661.070190,764.710388 660.036438,763.869507 
	C672.568420,756.838623 687.955750,757.993713 699.609741,748.747864 
	C695.957336,743.978638 691.003113,742.012085 686.034302,740.396057 
	C680.987427,738.754639 675.724548,737.781433 670.565186,736.480347 
	C667.862427,735.798645 665.757812,737.156982 663.524780,738.306885 
	C656.698486,741.822266 649.908508,745.599548 641.738159,743.315918 
	C640.229858,742.894409 638.035706,743.106873 639.328369,740.122681 
z"/>
<path fill="#000000" opacity="1.000000" stroke="none" 
	d="
M436.159760,779.881958 
	C436.346375,782.199707 435.422638,783.443542 433.805511,784.293091 
	C427.336792,787.691589 420.871490,791.096680 414.409698,794.508362 
	C411.849854,795.859985 410.219086,795.859070 409.545929,792.332703 
	C407.993164,784.197876 406.134399,776.120300 404.321228,768.037109 
	C403.926788,766.278870 403.789825,764.574341 405.408020,763.541626 
	C414.475098,757.754822 423.165741,751.447266 432.477173,743.475891 
	C433.775024,756.316833 434.944611,767.888428 436.159760,779.881958 
z"/>
<path fill="#000000" opacity="1.000000" stroke="none" 
	d="
M748.974854,766.045776 
	C744.303528,767.940002 740.485474,771.000854 735.841858,771.962280 
	C735.511719,771.512085 735.181580,771.061951 734.851440,770.611755 
	C740.350342,765.608398 745.849182,760.605042 751.796875,755.193298 
	C744.221619,748.653076 734.853638,744.928040 728.472107,737.001587 
	C730.653992,735.619507 732.236023,736.847168 733.770630,737.437439 
	C743.978210,741.363953 752.783264,747.536499 761.093567,754.524658 
	C763.980103,756.951904 763.200745,758.592468 760.329346,760.093628 
	C756.651367,762.016418 752.977905,763.947754 748.974854,766.045776 
z"/>
<path fill="#000000" opacity="1.000000" stroke="none" 
	d="
M378.676544,523.527954 
	C382.025635,521.840820 385.219574,520.909790 388.555206,520.562866 
	C390.673920,520.342529 392.634247,521.014465 393.718292,522.929871 
	C394.878448,524.979675 393.306732,526.384460 392.038879,527.686096 
	C386.452545,533.421448 379.392853,536.146973 371.674927,537.401428 
	C369.447601,537.763428 367.096863,537.514343 366.140198,535.099182 
	C365.197174,532.718628 366.773376,530.949219 368.468414,529.504028 
	C371.409058,526.996765 374.795776,525.206238 378.676544,523.527954 
z"/>
<path fill="#000000" opacity="1.000000" stroke="none" 
	d="
M663.183289,757.319702 
	C660.095520,757.137817 656.848816,757.276489 656.487366,753.870056 
	C656.044128,749.693298 657.668335,746.008057 661.678345,743.964417 
	C666.173035,741.673645 673.399780,743.375427 676.711914,747.298279 
	C679.157471,750.194763 677.325500,752.333069 675.274231,754.042297 
	C671.951111,756.811523 667.900696,757.611694 663.183289,757.319702 
z"/>
<path fill="#000000" opacity="1.000000" stroke="none" 
	d="
M218.873138,681.423523 
	C220.065826,681.378296 220.923462,681.248291 221.442017,682.118530 
	C210.907806,692.276855 187.459564,693.028931 177.744034,682.303711 
	C192.061523,683.169617 205.325684,683.252563 218.873138,681.423523 
z"/>
<path fill="#000000" opacity="1.000000" stroke="none" 
	d="
M639.480164,748.589233 
	C640.351929,750.035583 641.152039,751.121277 641.664551,752.328979 
	C642.609863,754.556885 644.599792,757.103638 642.782776,759.250183 
	C640.900330,761.474121 637.794067,760.471741 635.277466,759.832703 
	C630.303284,758.569458 626.940918,754.167480 626.999146,749.334839 
	C627.025574,747.141663 627.244629,744.876221 629.388123,743.677979 
	C631.708801,742.380798 633.935364,743.225281 635.826050,744.764648 
	C637.092468,745.795654 638.135742,747.100952 639.480164,748.589233 
z"/>
<path fill="#000000" opacity="1.000000" stroke="none" 
	d="
M462.615417,556.359497 
	C466.305511,555.712463 469.522461,554.003540 474.467560,555.475952 
	C462.585968,562.784668 451.157379,567.841736 438.858826,572.261902 
	C440.935303,566.295593 451.821381,559.199158 462.615417,556.359497 
z"/>
<path fill="#000000" opacity="1.000000" stroke="none" 
	d="
M455.786987,604.633789 
	C461.837860,601.739136 467.862305,600.451965 474.358429,600.726746 
	C463.736969,608.177124 451.996674,613.183228 439.439117,616.782959 
	C443.840790,611.505249 449.334503,607.751038 455.786987,604.633789 
z"/>
<path fill="#000000" opacity="1.000000" stroke="none" 
	d="
M506.805237,742.125427 
	C505.104279,742.444153 503.801941,742.824402 502.494812,742.841492 
	C500.426514,742.868591 497.800262,743.688660 496.717987,741.240173 
	C495.699432,738.935852 496.971191,736.731934 498.502014,734.886475 
	C501.192413,731.643127 504.935699,730.969360 508.814789,731.083740 
	C510.960724,731.147034 513.218445,731.713623 513.918701,734.254211 
	C514.646729,736.895569 513.218262,738.756714 511.218292,740.132446 
	C510.014984,740.960083 508.549377,741.406372 506.805237,742.125427 
z"/>
<path fill="#000000" opacity="1.000000" stroke="none" 
	d="
M427.101410,631.067261 
	C423.252472,634.379333 418.911316,634.521790 414.564453,634.502136 
	C410.687592,634.484619 410.154480,632.337280 411.391785,629.184265 
	C413.410645,624.039673 421.894379,620.956177 426.681030,623.748413 
	C430.016846,625.694336 429.560577,628.205811 427.101410,631.067261 
z"/>
<path fill="#000000" opacity="1.000000" stroke="none" 
	d="
M355.200470,782.591980 
	C356.273560,783.130005 357.088989,783.447205 357.671509,784.006836 
	C360.102814,786.342834 361.832214,789.084473 359.788208,792.376526 
	C358.245514,794.861206 355.699371,795.851379 352.853088,794.477844 
	C349.463593,792.842224 347.010468,790.369751 347.932739,786.232666 
	C348.751678,782.559143 351.417755,781.682190 355.200470,782.591980 
z"/>
<path fill="#000000" opacity="1.000000" stroke="none" 
	d="
M409.558228,516.663330 
	C407.716980,515.653503 406.514130,514.606384 406.461365,512.683350 
	C406.373657,509.489532 407.676178,506.958344 410.783539,506.251984 
	C413.196350,505.703522 414.917511,507.449768 415.250397,509.857056 
	C415.801849,513.845154 414.673279,516.799133 409.558228,516.663330 
z"/>
<path fill="#000000" opacity="1.000000" stroke="none" 
	d="
M500.830933,583.638245 
	C501.078766,584.659241 501.183990,585.309692 501.211273,585.963501 
	C501.339203,589.026123 499.817352,591.086426 496.967560,591.811523 
	C495.182800,592.265625 493.610291,590.952820 493.138000,589.360596 
	C492.339050,586.667053 491.928864,583.799866 494.766876,581.771179 
	C497.320679,579.945557 499.039886,581.397705 500.830933,583.638245 
z"/>
<path fill="#000000" opacity="1.000000" stroke="none" 
	d="
M332.427490,448.331421 
	C334.954071,447.048462 337.305603,446.475342 339.775269,447.359528 
	C340.937592,447.775696 341.791473,448.668488 341.421570,449.984467 
	C341.021759,451.406921 339.715149,451.666382 338.672516,450.980896 
	C336.526215,449.569885 333.807617,450.921539 331.778961,449.325562 
	C331.719940,449.279083 331.792053,449.012543 331.858185,448.875153 
	C331.926636,448.733002 332.062408,448.623291 332.427490,448.331421 
z"/>
</svg>